<?xml version="1.0" encoding="UTF-8" standalone="no"?>
<!-- Created with Inkscape (http://www.inkscape.org/) -->

<svg
   width="16px"
   height="16px"
   viewBox="0 0 16 16"
   version="1.1"
   id="SVGRoot"
   inkscape:version="1.2.1 (9c6d41e, 2022-07-14)"
   sodipodi:docname="SealfieIconMaster.svg"
   inkscape:export-filename="../../landing-page-mobile/src/assets/favicon.ico.png"
   inkscape:export-xdpi="372"
   inkscape:export-ydpi="372"
   xmlns:inkscape="http://www.inkscape.org/namespaces/inkscape"
   xmlns:sodipodi="http://sodipodi.sourceforge.net/DTD/sodipodi-0.dtd"
   xmlns="http://www.w3.org/2000/svg"
   xmlns:svg="http://www.w3.org/2000/svg"
   xmlns:rdf="http://www.w3.org/1999/02/22-rdf-syntax-ns#"
   xmlns:cc="http://creativecommons.org/ns#"
   xmlns:dc="http://purl.org/dc/elements/1.1/">
  <defs
     id="defs493" />
  <sodipodi:namedview
     id="base"
     pagecolor="#ffffff"
     bordercolor="#666666"
     borderopacity="1.0"
     inkscape:pageopacity="0.0"
     inkscape:pageshadow="2"
     inkscape:zoom="39.785298"
     inkscape:cx="2.1490351"
     inkscape:cy="8.4578982"
     inkscape:document-units="px"
     inkscape:current-layer="layer3"
     showgrid="false"
     inkscape:window-width="1694"
     inkscape:window-height="1005"
     inkscape:window-x="581"
     inkscape:window-y="87"
     inkscape:window-maximized="0"
     inkscape:grid-bbox="true"
     inkscape:showpageshadow="2"
     inkscape:pagecheckerboard="0"
     inkscape:deskcolor="#d1d1d1" />
  <metadata
     id="metadata496">
    <rdf:RDF>
      <cc:Work
         rdf:about="">
        <dc:format>image/svg+xml</dc:format>
        <dc:type
           rdf:resource="http://purl.org/dc/dcmitype/StillImage" />
      </cc:Work>
    </rdf:RDF>
  </metadata>
  <g
     inkscape:groupmode="layer"
     id="layer3"
     inkscape:label="AllRed"
     style="display:none">
    <rect
       style="fill:#d90b0b;fill-opacity:1"
       id="rect1467"
       width="16.262289"
       height="16.312559"
       x="-0.15080948"
       y="-0.15080948" />
  </g>
  <g
     inkscape:groupmode="layer"
     id="layer2"
     inkscape:label="backgroung"
     style="display:inline">
    <path
       d="m 8.106354,15.866065 c 3.430092,0 5.336928,0 6.582359,-1.234971 1.245428,-1.234972 1.245428,-3.125795 1.245428,-6.5270857 0,-3.4012898 0,-5.2921138 -1.245428,-6.5270863 -1.245431,-1.23497021 -3.152267,-1.23497021 -6.582359,-1.23497021 -3.4300924,0 -5.336928,0 -6.5823582,1.23497021 -1.24542782,1.2349725 -1.24542782,3.1257965 -1.24542782,6.5270863 0,3.4012907 0,5.2921137 1.24542782,6.5270857 1.2454302,1.234971 3.1522658,1.234971 6.5823582,1.234971 z"
       id="path4949"
       style="display:inline;fill:#d90b0b;fill-opacity:1;stroke:#000000;stroke-width:0.054131;stroke-miterlimit:4;stroke-dasharray:none;stroke-opacity:1"
       inkscape:connector-curvature="0"
       inkscape:label="path4949" />
  </g>
  <g
     inkscape:label="Layer 1"
     inkscape:groupmode="layer"
     id="layer1"
     style="display:inline">
    <path
       style="display:inline;fill:#ffffff;stroke-width:0.0228306"
       d="M 4.272523,11.585893 C 4.1891905,11.25706 4.1593654,10.96404 4.100475,10.612009 3.726332,10.449031 3.6109757,10.437485 3.1418233,10.372662 3.0011382,9.4989508 3.030669,8.96029 3.180798,8.1061049 4.1964189,7.8820102 5.1553339,7.8868733 6.1530111,7.9327061 6.3186461,7.8464932 6.4659503,7.4056942 6.521651,6.9261145 6.6268794,6.2830506 6.6077659,5.7033169 6.4136402,5.1921221 5.9841166,4.0838476 5.788303,4.2077394 5.8163543,3.2227323 5.8431065,1.7849383 6.2922766,1.0443333 7.3088819,0.53945186 7.8340993,0.42324091 8.5681028,0.2181581 9.6526783,0.72834309 10.558132,1.5680799 10.763644,2.2666191 10.740605,3.3280638 c -0.041,0.270648 -0.101299,0.7201713 -0.445812,1.6244865 -0.4147218,1.0886014 -0.3875489,0.9875218 -0.3848413,1.4315635 0.00284,0.4658855 0.00898,0.6986586 0.1096893,1.0034059 0.0991,0.2998762 0.07667,0.4356487 0.173551,0.4763903 1.286105,-0.014426 1.812092,-0.1593502 3.256575,0.1778787 0.177302,0.607156 0.150069,1.3691952 0.0019,2.2212753 -0.390655,0.156168 -0.560503,0.184601 -1.057721,0.22079 -0.01016,0.388203 -0.09422,0.813748 -0.137976,1.19931 -2.7129844,-0.06234 -5.8382526,0.0702 -7.9583421,0.103804 z m 7.617526,-0.461941 v -0.683418 c -2.6760645,0.0034 -4.8280473,0.01802 -7.1482004,0.07366 l 0.075405,0.663871 c 2.744928,-0.105162 4.7319806,-0.06177 7.0727954,-0.05411 z M 12.93414,9.7336053 c 0,0 0.03264,-0.4135822 0.01288,-1.0906206 -3.4715918,0.016477 -6.3417028,0.044255 -9.2615689,0.1006455 -0.075315,2.9761398 -0.084552,-1.7402782 -0.083528,0.9954794 3.8158074,-0.07642 9.3070859,-0.08091 9.3070859,-0.08091 z M 9.412053,7.9423507 C 9.7249298,7.4067103 9.2872068,6.7685629 9.2412636,6.115828 9.2224627,5.7733401 9.5192197,5.238763 9.6450661,4.9276031 10.132972,3.6094572 10.198138,2.7262697 9.666066,1.6535302 9.1091168,1.0259915 9.1962343,1.0098687 8.2939148,0.93874796 7.3341133,1.025039 7.2947291,1.1916249 6.8034395,1.6654461 6.165167,2.9668262 6.4168739,4.0144298 6.7676733,4.8450179 7.2253699,5.9195197 7.1045634,5.9020361 7.1159046,6.3955663 7.0591076,6.975691 7.0072811,7.4885774 7.0151961,7.9312197 c 0.8198204,0.093847 1.3662644,0.011131 2.195776,0.011131 z"
       id="path2840"
       inkscape:label="Rubber stamp"
       sodipodi:nodetypes="cccccccccccssccccccccsccccsccccccccccccccscc" />
    <path
       style="display:inline;fill:#ffffff;stroke-width:0.0220971"
       d="M 9.6011843,15.841073 C 8.4648889,15.777888 7.3613104,15.495595 6.4515108,15.035394 6.0826854,14.848833 5.7498342,14.630776 5.4996925,14.41184 5.0506556,14.018822 4.8113317,13.538553 4.8829989,13.174276 4.9948212,12.605894 5.5506317,12.239553 6.5407377,12.08164 c 0.2938698,-0.04687 1.1798813,-0.05199 1.5357476,-0.0089 1.5016225,0.181945 2.9077677,0.74118 3.6574467,1.454598 0.531422,0.505717 0.690333,0.984276 0.471854,1.42099 -0.269281,0.53826 -1.045256,0.854703 -2.184757,0.890947 -0.1579943,0.005 -0.3469244,0.0058 -0.4198447,0.0018 z m 0.9339247,-0.530047 c 0.42965,-0.05612 0.816437,-0.190998 1.015535,-0.354144 0.587608,-0.481501 -0.14634,-1.350388 -1.6401005,-1.941641 -0.4729384,-0.187195 -1.5257626,-0.430472 -2.0507085,-0.473857 -1.0797935,-0.08924 -1.9724117,0.08426 -2.3083242,0.448684 -0.2422739,0.262836 -0.1642364,0.590635 0.2351938,0.98794 0.2458795,0.244571 0.4964266,0.417891 0.8990257,0.621914 1.1704026,0.593119 2.6541278,0.867211 3.8493787,0.711104 z"
       id="path2842"
       inkscape:label="round tick" />
    <path
       style="display:inline;fill:#ffffff;stroke-width:0.0220971"
       d="M 8.0985824,14.615856 C 7.8934758,14.484787 7.4803118,14.180043 7.4165719,14.112814 7.2647817,13.952716 7.3430337,13.723937 7.573254,13.654736 c 0.2509344,-0.07543 1.5920833,-0.363338 1.692508,-0.363338 0.088148,0 0.1178867,0.01108 0.1702622,0.06346 0.117726,0.117726 0.1122563,0.260577 -0.013215,0.345132 -0.042319,0.02852 -0.2596024,0.08874 -0.5852811,0.162217 -0.5819022,0.131281 -0.6667538,0.154656 -0.6572262,0.181053 0.00367,0.01016 0.076173,0.07673 0.1611226,0.147935 0.1815517,0.152173 0.2125094,0.215126 0.1599707,0.325301 -0.042875,0.08991 -0.1152531,0.142475 -0.2181748,0.158453 -0.057956,0.009 -0.098286,-0.0039 -0.1846382,-0.05909 z"
       id="path2844"
       inkscape:label="Tick" />
  </g>
</svg>
