<?xml version="1.0" encoding="UTF-8" standalone="no"?>
<svg
   xmlns:dc="http://purl.org/dc/elements/1.1/"
   xmlns:cc="http://creativecommons.org/ns#"
   xmlns:rdf="http://www.w3.org/1999/02/22-rdf-syntax-ns#"
   xmlns:svg="http://www.w3.org/2000/svg"
   xmlns="http://www.w3.org/2000/svg"
   xmlns:sodipodi="http://sodipodi.sourceforge.net/DTD/sodipodi-0.dtd"
   xmlns:inkscape="http://www.inkscape.org/namespaces/inkscape"
   width="608"
   height="608"
   viewBox="-304 -304 608 608"
   version="1.1"
   id="svg4951"
   sodipodi:docname="SquircleLogoInkan.webp"
   inkscape:version="0.92.5 (2060ec1f9f, 2020-04-08)">
  <metadata
     id="metadata4957">
    <rdf:RDF>
      <cc:Work
         rdf:about="">
        <dc:format>image/svg+xml</dc:format>
        <dc:type
           rdf:resource="http://purl.org/dc/dcmitype/StillImage" />
        <dc:title>Squircle: x to 4th plus y to 4th equals radius to 4th</dc:title>
      </cc:Work>
    </rdf:RDF>
  </metadata>
  <defs
     id="defs4955" />
  <sodipodi:namedview
     pagecolor="#ffffff"
     bordercolor="#666666"
     borderopacity="1"
     objecttolerance="10"
     gridtolerance="10"
     guidetolerance="10"
     inkscape:pageopacity="0"
     inkscape:pageshadow="2"
     inkscape:window-width="3382"
     inkscape:window-height="1339"
     id="namedview4953"
     showgrid="false"
     inkscape:zoom="1.5526316"
     inkscape:cx="-46.980042"
     inkscape:cy="322.23472"
     inkscape:window-x="58"
     inkscape:window-y="27"
     inkscape:window-maximized="1"
     inkscape:current-layer="svg4951"
     inkscape:document-units="mm" />
  <title
     id="title4947">Squircle: x to 4th plus y to 4th equals radius to 4th</title>
  <path
     d="M -10.949152,288 C 115.25084,288 185.40714,288 231.22904,242.1782 277.05084,196.3563 277.05084,126.2 277.05084,0 c 0,-126.2 0,-196.3563 -45.8218,-242.1782 C 185.40714,-288 115.25084,-288 -10.949152,-288 c -126.200008,0 -196.356308,0 -242.178208,45.8218 -45.8218,45.8219 -45.8218,115.9782 -45.8218,242.1782 0,126.2 0,196.3563 45.8218,242.1782 C -207.30546,288 -137.14916,288 -10.949152,288 Z"
     id="path4949"
     style="opacity:1;fill:#d90b0b;fill-opacity:1;stroke:#000000;stroke-width:2;stroke-miterlimit:4;stroke-dasharray:none;stroke-opacity:1"
     inkscape:connector-curvature="0" />
  <g
     aria-label="Inkan"
     transform="matrix(1.5968458,0,0,2.3793553,-555.70945,-409.8065)"
     style="font-style:normal;font-variant:normal;font-weight:normal;font-stretch:normal;font-size:48px;line-height:125%;font-family:Tokyo;-inkscape-font-specification:'Tokyo, Normal';font-variant-ligatures:normal;font-variant-caps:normal;font-variant-numeric:normal;font-feature-settings:normal;text-align:center;letter-spacing:0px;word-spacing:0px;writing-mode:lr-tb;text-anchor:middle;fill:#000000;fill-opacity:1;stroke:none;stroke-width:1px;stroke-linecap:butt;stroke-linejoin:miter;stroke-opacity:1"
     id="flowRoot821">
    <path
       d="m 160.58594,214.84489 q 2.8125,-4.17187 7.03125,-4.17187 h 0.5625 q 4.875,0.0937 9.70312,0.0937 h 11.71875 q 0.1875,-0.32813 0.32813,-0.60938 0.28125,-0.46875 0.375,-0.79687 1.26562,-4.3125 3.23437,-8.25 2.01563,-3.9375 4.21875,-7.78125 l 1.40625,-2.4375 q 14.76563,-26.10938 29.57813,-52.21875 l 30.5625,-54.093752 q 4.82812,-8.53125 9.51562,-17.15625 1.6875,-3.140625 3.42188,-6.28125 0.32812,-0.609375 0.65625,-1.453125 0.14062,-0.421875 0.42187,-0.984375 h -22.78125 q 0.60938,-2.25 2.25,-3.609375 1.54688,-1.3125 3.42188,-1.3125 h 0.23437 l 4.21875,0.1875 q 9.60938,0.515625 19.17188,1.21875 9.60937,0.65625 19.125,2.0625 1.45312,0.234375 2.90625,0.5625 0.65625,0.140625 1.35937,0.28125 -0.79687,1.734375 -1.54687,2.109375 -0.46875,0.28125 -1.35938,0.28125 -0.51562,0 -1.125,-0.09375 l -13.3125,-1.125 q -1.59375,-0.09375 -3.14062,-0.234375 -0.1875,-0.04687 -0.32813,-0.04687 -0.1875,0 -0.42187,0.04687 -0.1875,0 -0.32813,0 h -0.0937 q -20.90625,38.296875 -42.46875,76.078127 -21.5625,37.78125 -43.5,75.5625 3.46875,0.14062 6.89063,0.1875 h 0.5625 q 7.6875,0 15.375,1.26562 -0.70313,1.5 -1.78125,1.92188 -0.84375,0.28125 -1.82813,0.28125 h -0.51562 q -8.95313,-0.32813 -17.85938,-0.46875 -1.5,0.0469 -2.95312,0.375 -0.60938,0.14062 -1.21875,0.23437 l -0.28125,0.0937 q -0.1875,0.14063 -0.32813,0.14063 -4.54687,-0.5625 -9.04687,-0.5625 -0.65625,0 -3.5625,0.0469 -2.90625,0.0937 -8.0625,0.46875 -3.98438,0.28125 -7.96875,0.46875 -0.5625,0 -1.35938,-0.14062 -0.46875,-0.0469 -1.07812,-0.14063 z"
       style="font-style:normal;font-variant:normal;font-weight:normal;font-stretch:normal;font-size:96px;font-family:Hachirou;-inkscape-font-specification:'Hachirou, Normal';font-variant-ligatures:normal;font-variant-caps:normal;font-variant-numeric:normal;font-feature-settings:normal;text-align:center;writing-mode:lr-tb;text-anchor:middle;fill:#ffffff"
       id="path840"
       inkscape:connector-curvature="0" />
    <path
       d="m 300.46094,125.54802 q -9.42188,4.03125 -17.39063,10.3125 -8.76562,7.17187 -17.20312,14.8125 -0.89063,0.79687 -1.82813,1.59375 -1.59375,1.59375 -2.8125,3.60937 l -0.28125,0.46875 q -1.40625,2.20313 -2.71875,4.5 -0.5625,0.98438 -1.17187,1.96875 -3.89063,-1.875 -5.39063,-5.57812 0.65625,-1.125 1.3125,-2.29688 11.34375,-19.07812 19.45313,-39.98437 3.32812,1.40625 4.78125,4.35937 0.28125,0.60938 0.28125,1.45313 0,0.79687 -0.23438,1.5 -1.92187,5.15625 -4.125,10.21875 l -0.84375,1.875 q -1.82812,3.79687 -3.14062,8.15625 0.75,-0.5625 1.45312,-1.17188 1.64063,-1.35937 3.28125,-2.76562 0.70313,-0.5625 1.40625,-1.17188 1.78125,-1.5 3.65625,-2.95312 2.57813,-2.01563 5.29688,-3.84375 2.67187,-1.875 5.4375,-3.60938 2.25,-1.45312 4.54687,-2.8125 0.51563,-0.28125 1.03125,-0.60937 l 2.0625,-1.21875 q 1.82813,-1.03125 3.5625,-2.10938 1.875,-1.17187 3.84375,-2.53125 0.89063,-0.60937 1.82813,-1.21875 0.28125,0.1875 0.65625,0.375 0.75,0.42188 1.5,0.98438 2.95312,2.34375 3.14062,4.125 v 0.375 q 0,1.64062 -1.92187,4.45312 -8.76563,13.78125 -17.4375,27.60938 -0.70313,1.21875 -1.3125,2.8125 -0.32813,0.79687 -0.75,1.78125 0.9375,0.0469 1.78125,0.14062 1.21875,0.1875 2.29687,0.1875 0.46875,0 0.89063,-0.0469 9.28125,-0.84375 16.92187,-6.1875 7.64063,-4.73438 14.01563,-11.10938 0.42187,-0.60937 1.82812,-0.60937 -0.0937,0.28125 -0.1875,0.60937 -0.14062,0.70313 -0.51562,1.21875 -1.03125,1.03125 -2.01563,2.10938 -3.04687,3.375 -6.51562,6.28125 -8.10938,6.84375 -18.09375,10.45312 -1.54688,0.51563 -3.14063,0.9375 -0.75,0.1875 -1.45312,0.375 -1.54688,0.51563 -3,0.5625 h -0.14063 q -1.40625,0 -2.76562,-1.03125 l -0.23438,-0.23437 q -1.82812,-1.40625 -3.32812,-3.04688 -1.5,-1.6875 -1.78125,-4.03125 v -0.46875 q 0,-2.8125 1.5,-5.34375 4.40625,-7.6875 9.09375,-15.23437 l 2.25,-3.65625 q 1.03125,-1.6875 2.15625,-3.28125 0.51562,-0.75 1.03125,-1.54688 -0.14063,-0.0937 -0.28125,-0.23437 z"
       style="font-style:normal;font-variant:normal;font-weight:normal;font-stretch:normal;font-size:96px;font-family:Hachirou;-inkscape-font-specification:'Hachirou, Normal';font-variant-ligatures:normal;font-variant-caps:normal;font-variant-numeric:normal;font-feature-settings:normal;text-align:center;writing-mode:lr-tb;text-anchor:middle;fill:#ffffff"
       id="path842"
       inkscape:connector-curvature="0" />
    <path
       d="m 375.32031,53.360518 q 0.5625,0.84375 1.07813,1.6875 1.17187,1.78125 2.15625,3.609375 0.32812,0.609375 0.32812,1.21875 0,0.375 -0.23437,1.03125 -0.1875,0.609375 -0.75,1.453125 l -0.28125,0.46875 q -2.01563,3.5625 -4.07813,7.125 l -6,10.5 q -16.45312,29.203122 -32.85937,58.453122 -0.9375,1.64063 -1.875,3.32813 -0.42188,0.70312 -0.89063,1.73437 -0.28125,0.60938 -0.70312,1.45313 7.96875,-5.01563 15.51562,-10.3125 14.01563,-10.3125 29.29688,-17.71875 0.70312,0.79687 0.70312,1.3125 0,0.0937 -0.14062,0.46875 -0.14063,0.375 -0.79688,0.75 -2.29687,1.6875 -4.54687,3.375 -4.78125,3.5625 -9.60938,6.98437 -8.85937,6.32813 -17.85937,12.32813 -2.90625,1.875 -2.90625,5.15625 v 3.04687 q 0.32812,6.5625 6.89062,6.9375 h 1.26563 q 5.625,0 10.92187,-1.875 12.98438,-4.17187 25.03125,-10.5 1.35938,-0.75 2.8125,-1.3125 0.32813,-0.0937 0.60938,-0.0937 1.07812,0 1.3125,1.64063 -0.23438,0.1875 -0.51563,0.375 -0.60937,0.46875 -1.3125,0.84375 -2.95312,1.3125 -5.90625,2.67187 -9.70312,4.5 -19.54687,8.67188 -4.64063,1.78125 -9.60938,2.53125 -1.6875,0.375 -3.1875,0.375 -6.60937,0 -9.70312,-6.89063 -0.98438,-2.0625 -1.59375,-4.45312 -0.375,-1.17188 -0.79688,-2.4375 -0.84375,0.60937 -1.6875,1.17187 -9.28125,5.76563 -16.21875,14.20313 -2.10937,-1.21875 -2.53125,-2.15625 -0.14062,-0.375 -0.14062,-0.89063 0,-0.79687 0.32812,-1.92187 1.6875,-6.14063 4.96875,-11.67188 17.67188,-31.03125 35.29688,-62.109372 8.39062,-14.71875 16.73437,-29.4375 0.14063,-0.234375 0.51563,-0.5625 0.1875,-0.234375 0.51562,-0.5625 z"
       style="font-style:normal;font-variant:normal;font-weight:normal;font-stretch:normal;font-size:96px;font-family:Hachirou;-inkscape-font-specification:'Hachirou, Normal';font-variant-ligatures:normal;font-variant-caps:normal;font-variant-numeric:normal;font-feature-settings:normal;text-align:center;writing-mode:lr-tb;text-anchor:middle;fill:#ffffff"
       id="path844"
       inkscape:connector-curvature="0" />
    <path
       d="m 418.11719,157.23552 q 3.09375,0.84375 6.04687,0.84375 5.39063,0 10.3125,-2.8125 3.9375,-2.15625 7.64063,-4.875 l 0.46875,-0.28125 q 2.0625,-1.5 5.25,-3.9375 1.5,-1.17188 3,-2.29688 0.79687,-0.51562 1.6875,-0.89062 l 0.75,-0.375 q 0.28125,0.28125 0.51562,0.5625 -0.14062,0.28125 -0.23437,0.5625 -0.23438,0.60937 -0.60938,0.98437 -6.1875,5.48438 -13.64062,11.625 -5.625,4.5 -12.70313,5.8125 -1.03125,0.1875 -2.0625,0.1875 -3.42187,0 -7.17187,-2.25 -3.70313,-2.25 -4.96875,-6.60937 -0.14063,-0.79688 -0.14063,-1.64063 0,-1.82812 0.65625,-3.70312 0.89063,-2.53125 2.10938,-4.96875 0.46875,-0.9375 0.9375,-1.92188 0.0469,-0.0937 0.0937,-0.23437 0.65625,-1.125 0.75,-2.71875 -0.375,0.32812 -0.75,0.70312 -0.84375,0.70313 -1.6875,1.45313 l -4.5,4.21875 q -5.10938,4.875 -10.40625,9.5625 -3.75,3.14062 -7.96875,5.76562 l -0.375,0.28125 q -1.59375,0.98438 -3.14063,0.98438 -1.92187,0 -3.84375,-1.54688 -3.375,-2.48437 -3.98437,-4.875 -0.14063,-0.5625 -0.14063,-1.17187 0,-2.0625 1.64063,-4.82813 8.39062,-15.79687 23.15625,-25.875 3.51562,-2.20312 7.35937,-3.9375 l 0.84375,-0.375 q 2.25,-1.03125 4.3125,-1.03125 3.46875,0 6.42188,2.8125 0.9375,0.89063 1.92187,1.78125 0.46875,0.42188 0.98438,0.89063 2.48437,-1.96875 3.9375,-4.82813 0.70312,-1.21875 1.54687,-2.4375 2.95313,1.3125 4.78125,4.03125 0.51563,0.70313 0.51563,1.35938 0,0.1875 -0.14063,0.75 -0.14062,0.5625 -0.70312,1.35937 l -2.34375,3.46875 q -2.15625,3.09375 -4.125,6.28125 -5.34375,8.8125 -10.35938,17.8125 -1.64062,2.53125 -1.64062,5.8125 z m -31.07813,-1.54688 q 4.96875,-1.5 8.29688,-4.26562 14.53125,-10.73438 27.04687,-23.76563 0.79688,-0.79687 1.07813,-1.26562 0.14062,-0.28125 0.14062,-0.5625 0,-0.28125 -0.23437,-0.75 -0.1875,-0.46875 -0.9375,-1.73438 -9.46875,1.5 -19.96875,11.48438 -10.45313,9.98437 -15.42188,20.85937 z"
       style="font-style:normal;font-variant:normal;font-weight:normal;font-stretch:normal;font-size:96px;font-family:Hachirou;-inkscape-font-specification:'Hachirou, Normal';font-variant-ligatures:normal;font-variant-caps:normal;font-variant-numeric:normal;font-feature-settings:normal;text-align:center;writing-mode:lr-tb;text-anchor:middle;fill:#ffffff"
       id="path846"
       inkscape:connector-curvature="0" />
    <path
       d="m 488.99219,125.54802 q -9.42188,4.03125 -17.39063,10.3125 -8.76562,7.17187 -17.20312,14.8125 -0.89063,0.79687 -1.82813,1.59375 -1.59375,1.59375 -2.8125,3.60937 l -0.28125,0.46875 q -1.40625,2.20313 -2.71875,4.5 -0.5625,0.98438 -1.17187,1.96875 -3.89063,-1.875 -5.39063,-5.57812 0.65625,-1.125 1.3125,-2.29688 11.34375,-19.07812 19.45313,-39.98437 3.32812,1.40625 4.78125,4.35937 0.28125,0.60938 0.28125,1.45313 0,0.79687 -0.23438,1.5 -1.92187,5.15625 -4.125,10.21875 l -0.84375,1.875 q -1.82812,3.79687 -3.14062,8.15625 0.75,-0.5625 1.45312,-1.17188 1.64063,-1.35937 3.28125,-2.76562 0.70313,-0.5625 1.40625,-1.17188 1.78125,-1.5 3.65625,-2.95312 2.57813,-2.01563 5.29688,-3.84375 2.67187,-1.875 5.4375,-3.60938 2.25,-1.45312 4.54687,-2.8125 0.51563,-0.28125 1.03125,-0.60937 l 2.0625,-1.21875 q 1.82813,-1.03125 3.5625,-2.10938 1.875,-1.17187 3.84375,-2.53125 0.89063,-0.60937 1.82813,-1.21875 0.28125,0.1875 0.65625,0.375 0.75,0.42188 1.5,0.98438 2.95312,2.34375 3.14062,4.125 v 0.375 q 0,1.64062 -1.92187,4.45312 -8.76563,13.78125 -17.4375,27.60938 -0.70313,1.21875 -1.3125,2.8125 -0.32813,0.79687 -0.75,1.78125 0.9375,0.0469 1.78125,0.14062 1.21875,0.1875 2.29687,0.1875 0.46875,0 0.89063,-0.0469 9.28125,-0.84375 16.92187,-6.1875 7.64063,-4.73438 14.01563,-11.10938 0.42187,-0.60937 1.82812,-0.60937 -0.0937,0.28125 -0.1875,0.60937 -0.14062,0.70313 -0.51562,1.21875 -1.03125,1.03125 -2.01563,2.10938 -3.04687,3.375 -6.51562,6.28125 -8.10938,6.84375 -18.09375,10.45312 -1.54688,0.51563 -3.14063,0.9375 -0.75,0.1875 -1.45312,0.375 -1.54688,0.51563 -3,0.5625 h -0.14063 q -1.40625,0 -2.76562,-1.03125 l -0.23438,-0.23437 q -1.82812,-1.40625 -3.32812,-3.04688 -1.5,-1.6875 -1.78125,-4.03125 v -0.46875 q 0,-2.8125 1.5,-5.34375 4.40625,-7.6875 9.09375,-15.23437 l 2.25,-3.65625 q 1.03125,-1.6875 2.15625,-3.28125 0.51562,-0.75 1.03125,-1.54688 -0.14063,-0.0937 -0.28125,-0.23437 z"
       style="font-style:normal;font-variant:normal;font-weight:normal;font-stretch:normal;font-size:96px;font-family:Hachirou;-inkscape-font-specification:'Hachirou, Normal';font-variant-ligatures:normal;font-variant-caps:normal;font-variant-numeric:normal;font-feature-settings:normal;text-align:center;writing-mode:lr-tb;text-anchor:middle;fill:#ffffff"
       id="path848"
       inkscape:connector-curvature="0" />
  </g>
  <g
     aria-label="link"
     transform="matrix(1.8235585,0,0,2.1735445,-617.23686,-93.795121)"
     style="font-style:normal;font-variant:normal;font-weight:normal;font-stretch:normal;font-size:48px;line-height:125%;font-family:Tokyo;-inkscape-font-specification:'Tokyo, Normal';font-variant-ligatures:normal;font-variant-caps:normal;font-variant-numeric:normal;font-feature-settings:normal;text-align:center;letter-spacing:0px;word-spacing:0px;writing-mode:lr-tb;text-anchor:middle;fill:#000000;fill-opacity:1;stroke:none;stroke-width:1px;stroke-linecap:butt;stroke-linejoin:miter;stroke-opacity:1"
     id="flowRoot821-0">
    <path
       d="m 287.35937,53.735518 q 4.96875,2.25 4.96875,6.046875 0,1.59375 -0.9375,3.515625 -4.73437,10.546875 -10.5,20.484375 Q 267.25,106.70427 253.46875,129.53239 247,140.31364 240.48437,151.09489 q -0.375,0.5625 -0.70312,1.17188 -2.15625,2.90625 -2.90625,6.60937 0.9375,0.32813 1.78125,0.32813 0.28125,0 0.98437,-0.0937 0.70313,-0.0937 1.78125,-0.42188 l 0.84375,-0.1875 q 15.5625,-4.35937 29.20313,-12.89062 2.53125,-1.5 5.01562,-3 l 3.84375,-2.34375 q 0.14063,-0.0937 0.32813,-0.23438 0.46875,-0.375 0.98437,-0.46875 h 0.14063 q 0.51562,0 1.125,0.70313 l -0.65625,0.65625 q -0.65625,0.70312 -1.45313,1.26562 l -2.90625,1.96875 q -7.07812,4.78125 -14.29687,9.42188 -9.1875,5.29687 -19.35938,8.0625 -0.79687,0.28125 -1.64062,0.51562 -1.5,0.46875 -2.85938,0.46875 -3.5625,0 -5.76562,-3.51562 -1.125,-1.5 -1.125,-3.1875 0,-0.84375 0.28125,-1.6875 0.23437,-0.70313 0.42187,-1.35938 0.79688,-2.625 1.96875,-5.10937 0.79688,-1.54688 1.59375,-3.14063 4.21875,-8.625 8.95313,-16.92187 8.57812,-14.625 17.25,-29.203127 6.9375,-11.578125 13.78125,-23.25 4.03125,-6.984375 7.54687,-14.296875 1.07813,-2.25 1.875,-4.78125 0.375,-1.171875 0.84375,-2.4375 z"
       style="font-style:normal;font-variant:normal;font-weight:normal;font-stretch:normal;font-size:96px;font-family:Hachirou;-inkscape-font-specification:'Hachirou, Normal';font-variant-ligatures:normal;font-variant-caps:normal;font-variant-numeric:normal;font-feature-settings:normal;text-align:center;writing-mode:lr-tb;text-anchor:middle;fill:#ffffff"
       id="path828"
       inkscape:connector-curvature="0" />
    <path
       d="m 293.82812,115.00114 0.84375,0.46875 q 0.84375,0.46875 1.54688,0.98438 2.57812,1.78125 2.76562,3.09375 v 0.28125 q 0,1.3125 -1.40625,3.60937 -7.6875,13.45313 -15.04687,27.04688 -2.20313,3.46875 -2.20313,7.73437 v 0.51563 q 1.78125,0.5625 3.42188,0.5625 2.76562,0 5.20312,-1.59375 7.26563,-4.21875 14.25,-8.95313 2.48438,-1.6875 4.82813,-3.5625 1.59375,-1.21875 3.1875,-2.34375 0,-0.0469 0.0469,-0.0469 0.60938,-0.51563 1.35938,-0.79688 0.32812,-0.14062 0.70312,-0.14062 0.42188,0 0.9375,0.1875 -0.0937,0.23437 -0.0937,0.42187 -0.0469,0.32813 -0.14062,0.42188 -2.53125,2.01562 -5.0625,3.98437 -8.10938,6.46875 -16.35938,12.70313 -3.09375,2.0625 -6.79687,3.14062 -1.125,0.32813 -2.15625,0.32813 -2.57813,0 -4.82813,-2.01563 -4.5,-3.46875 -4.5,-8.01562 0,-2.29688 1.125,-4.82813 1.64063,-4.35937 3.89063,-8.4375 4.96875,-8.95312 10.17187,-17.85937 l 2.25,-3.9375 q 0.5625,-0.98438 1.3125,-1.92188 z m 8.48438,1.3125 q -3.1875,-2.53125 -5.95313,-4.73437 0.42188,-0.70313 0.79688,-1.40625 0.5625,-1.21875 1.3125,-2.0625 0.75,-0.89063 2.10937,-0.9375 1.64063,0.0469 2.76563,1.125 1.17187,1.07812 1.73437,2.57812 0.1875,0.5625 0.1875,1.03125 0,0.51563 -0.32812,1.125 -0.32813,0.60938 -1.125,1.40625 -0.84375,0.79688 -1.5,1.875 z"
       style="font-style:normal;font-variant:normal;font-weight:normal;font-stretch:normal;font-size:96px;font-family:Hachirou;-inkscape-font-specification:'Hachirou, Normal';font-variant-ligatures:normal;font-variant-caps:normal;font-variant-numeric:normal;font-feature-settings:normal;text-align:center;writing-mode:lr-tb;text-anchor:middle;fill:#ffffff"
       id="path830"
       inkscape:connector-curvature="0" />
    <path
       d="m 351.15625,125.54802 q -9.42188,4.03125 -17.39063,10.3125 -8.76562,7.17187 -17.20312,14.8125 -0.89063,0.79687 -1.82813,1.59375 -1.59375,1.59375 -2.8125,3.60937 l -0.28125,0.46875 q -1.40625,2.20313 -2.71875,4.5 -0.5625,0.98438 -1.17187,1.96875 -3.89063,-1.875 -5.39063,-5.57812 0.65625,-1.125 1.3125,-2.29688 11.34375,-19.07812 19.45313,-39.98437 3.32812,1.40625 4.78125,4.35937 0.28125,0.60938 0.28125,1.45313 0,0.79687 -0.23438,1.5 -1.92187,5.15625 -4.125,10.21875 l -0.84375,1.875 q -1.82812,3.79687 -3.14062,8.15625 0.75,-0.5625 1.45312,-1.17188 1.64063,-1.35937 3.28125,-2.76562 0.70313,-0.5625 1.40625,-1.17188 1.78125,-1.5 3.65625,-2.95312 2.57813,-2.01563 5.29688,-3.84375 2.67187,-1.875 5.4375,-3.60938 2.25,-1.45312 4.54687,-2.8125 0.51563,-0.28125 1.03125,-0.60937 l 2.0625,-1.21875 q 1.82813,-1.03125 3.5625,-2.10938 1.875,-1.17187 3.84375,-2.53125 0.89063,-0.60937 1.82813,-1.21875 0.28125,0.1875 0.65625,0.375 0.75,0.42188 1.5,0.98438 2.95312,2.34375 3.14062,4.125 v 0.375 q 0,1.64062 -1.92187,4.45312 -8.76563,13.78125 -17.4375,27.60938 -0.70313,1.21875 -1.3125,2.8125 -0.32813,0.79687 -0.75,1.78125 0.9375,0.0469 1.78125,0.14062 1.21875,0.1875 2.29687,0.1875 0.46875,0 0.89063,-0.0469 9.28125,-0.84375 16.92187,-6.1875 7.64063,-4.73438 14.01563,-11.10938 0.42187,-0.60937 1.82812,-0.60937 -0.0937,0.28125 -0.1875,0.60937 -0.14062,0.70313 -0.51562,1.21875 -1.03125,1.03125 -2.01563,2.10938 -3.04687,3.375 -6.51562,6.28125 -8.10938,6.84375 -18.09375,10.45312 -1.54688,0.51563 -3.14063,0.9375 -0.75,0.1875 -1.45312,0.375 -1.54688,0.51563 -3,0.5625 h -0.14063 q -1.40625,0 -2.76562,-1.03125 l -0.23438,-0.23437 q -1.82812,-1.40625 -3.32812,-3.04688 -1.5,-1.6875 -1.78125,-4.03125 v -0.46875 q 0,-2.8125 1.5,-5.34375 4.40625,-7.6875 9.09375,-15.23437 l 2.25,-3.65625 q 1.03125,-1.6875 2.15625,-3.28125 0.51562,-0.75 1.03125,-1.54688 -0.14063,-0.0937 -0.28125,-0.23437 z"
       style="font-style:normal;font-variant:normal;font-weight:normal;font-stretch:normal;font-size:96px;font-family:Hachirou;-inkscape-font-specification:'Hachirou, Normal';font-variant-ligatures:normal;font-variant-caps:normal;font-variant-numeric:normal;font-feature-settings:normal;text-align:center;writing-mode:lr-tb;text-anchor:middle;fill:#ffffff"
       id="path832"
       inkscape:connector-curvature="0" />
    <path
       d="m 426.01562,53.360518 q 0.5625,0.84375 1.07813,1.6875 1.17187,1.78125 2.15625,3.609375 0.32812,0.609375 0.32812,1.21875 0,0.375 -0.23437,1.03125 -0.1875,0.609375 -0.75,1.453125 l -0.28125,0.46875 q -2.01563,3.5625 -4.07813,7.125 l -6,10.5 q -16.45312,29.203122 -32.85937,58.453122 -0.9375,1.64063 -1.875,3.32813 -0.42188,0.70312 -0.89063,1.73437 -0.28125,0.60938 -0.70312,1.45313 7.96875,-5.01563 15.51562,-10.3125 14.01563,-10.3125 29.29688,-17.71875 0.70312,0.79687 0.70312,1.3125 0,0.0937 -0.14062,0.46875 -0.14063,0.375 -0.79688,0.75 -2.29687,1.6875 -4.54687,3.375 -4.78125,3.5625 -9.60938,6.98437 -8.85937,6.32813 -17.85937,12.32813 -2.90625,1.875 -2.90625,5.15625 v 3.04687 q 0.32812,6.5625 6.89062,6.9375 h 1.26563 q 5.625,0 10.92187,-1.875 12.98438,-4.17187 25.03125,-10.5 1.35938,-0.75 2.8125,-1.3125 0.32813,-0.0937 0.60938,-0.0937 1.07812,0 1.3125,1.64063 -0.23438,0.1875 -0.51563,0.375 -0.60937,0.46875 -1.3125,0.84375 -2.95312,1.3125 -5.90625,2.67187 -9.70312,4.5 -19.54687,8.67188 -4.64063,1.78125 -9.60938,2.53125 -1.6875,0.375 -3.1875,0.375 -6.60937,0 -9.70312,-6.89063 -0.98438,-2.0625 -1.59375,-4.45312 -0.375,-1.17188 -0.79688,-2.4375 -0.84375,0.60937 -1.6875,1.17187 -9.28125,5.76563 -16.21875,14.20313 -2.10937,-1.21875 -2.53125,-2.15625 -0.14062,-0.375 -0.14062,-0.89063 0,-0.79687 0.32812,-1.92187 1.6875,-6.14063 4.96875,-11.67188 17.67188,-31.03125 35.29688,-62.109372 8.39062,-14.71875 16.73437,-29.4375 0.14063,-0.234375 0.51563,-0.5625 0.1875,-0.234375 0.51562,-0.5625 z"
       style="font-style:normal;font-variant:normal;font-weight:normal;font-stretch:normal;font-size:96px;font-family:Hachirou;-inkscape-font-specification:'Hachirou, Normal';font-variant-ligatures:normal;font-variant-caps:normal;font-variant-numeric:normal;font-feature-settings:normal;text-align:center;writing-mode:lr-tb;text-anchor:middle;fill:#ffffff"
       id="path834"
       inkscape:connector-curvature="0" />
  </g>
  <g
     id="g973"
     transform="matrix(0.20388997,0,0,0.20388997,-11.532145,8.9465994)"
     style="fill:#ffffff;fill-opacity:1">
    <g
       id="g915"
       style="fill:#ffffff;fill-opacity:1">
      <g
         id="g913"
         style="fill:#ffffff;fill-opacity:1">
        <path
           id="path909"
           d="M 152.502,0.001 C 68.412,0.001 0,68.412 0,152.501 c 0,84.089 68.412,152.5 152.502,152.5 84.089,0 152.5,-68.411 152.5,-152.5 0,-84.089 -68.411,-152.5 -152.5,-152.5 z m 0,280 C 82.197,280.001 25,222.806 25,152.501 c 0,-70.304 57.197,-127.5 127.502,-127.5 70.304,0 127.5,57.196 127.5,127.5 0,70.305 -57.196,127.5 -127.5,127.5 z"
           inkscape:connector-curvature="0"
           style="fill:#ffffff;fill-opacity:1" />
        <path
           id="path911"
           d="m 218.473,93.97 -90.546,90.547 -41.398,-41.398 c -4.882,-4.881 -12.796,-4.881 -17.678,0 -4.881,4.882 -4.881,12.796 0,17.678 l 50.237,50.237 c 2.441,2.44 5.64,3.661 8.839,3.661 3.199,0 6.398,-1.221 8.839,-3.661 l 99.385,-99.385 c 4.881,-4.882 4.881,-12.796 0,-17.678 -4.882,-4.882 -12.797,-4.882 -17.678,-0.001 z"
           inkscape:connector-curvature="0"
           style="fill:#ffffff;fill-opacity:1" />
      </g>
    </g>
    <g
       id="g917"
       style="fill:#ffffff;fill-opacity:1" />
    <g
       id="g919"
       style="fill:#ffffff;fill-opacity:1" />
    <g
       id="g921"
       style="fill:#ffffff;fill-opacity:1" />
    <g
       id="g923"
       style="fill:#ffffff;fill-opacity:1" />
    <g
       id="g925"
       style="fill:#ffffff;fill-opacity:1" />
    <g
       id="g927"
       style="fill:#ffffff;fill-opacity:1" />
    <g
       id="g929"
       style="fill:#ffffff;fill-opacity:1" />
    <g
       id="g931"
       style="fill:#ffffff;fill-opacity:1" />
    <g
       id="g933"
       style="fill:#ffffff;fill-opacity:1" />
    <g
       id="g935"
       style="fill:#ffffff;fill-opacity:1" />
    <g
       id="g937"
       style="fill:#ffffff;fill-opacity:1" />
    <g
       id="g939"
       style="fill:#ffffff;fill-opacity:1" />
    <g
       id="g941"
       style="fill:#ffffff;fill-opacity:1" />
    <g
       id="g943"
       style="fill:#ffffff;fill-opacity:1" />
    <g
       id="g945"
       style="fill:#ffffff;fill-opacity:1" />
  </g>
</svg>
